<svg width="84" height="84" viewBox="0 0 84 84" fill="none" xmlns="http://www.w3.org/2000/svg">
<path fill-rule="evenodd" clip-rule="evenodd" d="M81.9835 0.451794C83.225 1.11623 84 2.41006 84 3.81819V64.9091C84 66.1857 83.362 67.3779 82.2998 68.086L59.3907 83.3587C58.1873 84.161 56.634 84.2145 55.3784 83.4969L30.5455 69.3067L5.71253 83.4969C4.53079 84.1722 3.07894 84.1674 1.90173 83.4842C0.724532 82.801 0 81.5429 0 80.1818V19.0909C0 17.7207 0.734183 16.4556 1.92383 15.7758L28.6511 0.503077C29.8249 -0.167685 31.266 -0.167685 32.4398 0.503077L57.1182 14.605L78.0639 0.641268C79.2355 -0.13982 80.7419 -0.212642 81.9835 0.451794ZM53.4545 21.3067L34.3636 10.3976V62.6933L53.4545 73.6024V21.3067ZM61.0909 73.0475L76.3636 62.8657V10.9525L61.0909 21.1343V73.0475ZM26.7273 62.6933V10.3976L7.63636 21.3067V73.6024L26.7273 62.6933Z" fill="#222222"/>
</svg>
